<svg width="1200" height="540" viewBox="0 0 1200 540" fill="none" xmlns="http://www.w3.org/2000/svg">
<path d="M225.314 266.908C219.94 254.127 229.325 240 243.19 240V240C250.787 240 257.685 244.436 260.836 251.349L264.656 259.733C284.596 303.48 284.908 353.66 265.515 397.652L260.802 408.341C257.678 415.427 250.665 420 242.921 420V420C229.081 420 219.627 406.008 224.791 393.167L230.434 379.137C243.609 346.377 243.323 309.741 229.637 277.191L225.314 266.908Z" fill="#2D3436"/>
<path d="M40 380H47C54.1797 380 60 374.18 60 367V131C60 130.172 60.6716 129.5 61.5 129.5C82.8434 129.777 100 147.158 100 168.503V249C100 255.753 103.78 261.937 109.789 265.017L125.487 273.062C134.396 277.628 140 286.797 140 296.808V317.25C140 327.527 129.237 334.253 120 329.75C110.763 325.247 100 331.973 100 342.25V359.5V380C100 402.091 82.0914 420 60 420H40C28.9543 420 20 411.046 20 400C20 388.954 28.9543 380 40 380Z" fill="#2D3436"/>
<circle cx="170" cy="130" r="110" fill="#2D3436"/>
<path d="M232 180H260C271.046 180 280 188.954 280 200V200C280 211.046 271.046 220 260 220H232V180Z" fill="#2D3436"/>
<circle cx="200" cy="140" r="60" fill="white"/>
<circle cx="220" cy="140" r="40" fill="#2D3436"/>
<path d="M209 130C209 118.954 217.954 110 229 110V110C240.046 110 249 118.954 249 130V130C249 141.046 240.046 150 229 150V150C217.954 150 209 141.046 209 130V130Z" fill="white"/>
<path d="M300 280V400C300 411.046 308.954 420 320 420C331.046 420 340 411.046 340 400V290C340 284.477 344.477 280 350 280H429.5C435.299 280 440 284.701 440 290.5V400C440 411.046 448.954 420 460 420C471.046 420 480 411.046 480 400V280C480 257.909 462.091 240 440 240H340C317.909 240 300 257.909 300 280Z" fill="#2D3436"/>
<path d="M900 381V261C900 249.954 891.046 241 880 241C868.954 241 860 249.954 860 261V370C860 376.075 855.075 381 849 381H770C764.477 381 760 376.523 760 371V261C760 249.954 751.046 241 740 241C728.954 241 720 249.954 720 261V381C720 403.091 737.909 421 760 421H860C882.091 421 900 403.091 900 381Z" fill="#2D3436"/>
<path d="M920.5 230V400.119C920.5 411.165 929.454 420.119 940.5 420.119C951.546 420.119 960.5 411.165 960.5 400.119V230C960.5 224.477 964.977 220 970.5 220H1000.5C1011.55 220 1020.5 211.046 1020.5 200C1020.5 188.954 1011.55 180 1000.5 180H971C965.201 180 960.5 175.299 960.5 169.5V130.5C960.5 124.701 965.201 120 971 120H1000.5H1020.5H1040.5C1051.55 120 1060.5 111.046 1060.5 100C1060.5 88.9543 1051.55 80 1040.5 80H1000.5H960.5C938.409 80 920.5 97.9086 920.5 120V169.5C920.5 175.299 915.799 180 910 180H881C869.954 180 861 188.954 861 200C861 211.046 869.954 220 881 220H910.5C916.023 220 920.5 224.477 920.5 230Z" fill="#2D3436"/>
<path fill-rule="evenodd" clip-rule="evenodd" d="M540 420C517.909 420 500 402.091 500 380V280C500 257.909 517.909 240 540 240H660C682.091 240 700 257.909 700 280V480C700 502.091 682.091 520 660 520H620C608.954 520 600 511.046 600 500V500C600 488.954 608.954 480 620 480H649C655.075 480 660 475.075 660 469V469V430V430C660 424.477 655.523 420 650 420H540ZM551 380.5H648.5C654.575 380.5 659.5 375.575 659.5 369.5V290.5C659.5 284.977 655.023 280.5 649.5 280.5H550C544.477 280.5 540 284.977 540 290.5V369.5C540 375.575 544.925 380.5 551 380.5Z" fill="#2D3436"/>
<path d="M980.5 380V259.75C980.5 248.842 989.342 240 1000.25 240C1011.16 240 1020 248.842 1020 259.75V369C1020 374.799 1024.7 379.5 1030.5 379.5H1129C1134.8 379.5 1139.5 374.799 1139.5 369V260.25C1139.5 249.066 1148.57 240 1159.75 240C1170.93 240 1180 249.066 1180 260.25V480C1180 502.091 1162.09 520 1140 520H1100C1088.95 520 1080 511.046 1080 500C1080 488.954 1088.95 480 1100 480H1129C1134.8 480 1139.5 475.299 1139.5 469.5V450V430.5C1139.5 424.701 1134.8 420 1129 420H1020.5C998.409 420 980.5 402.091 980.5 380Z" fill="#2D3436"/>
</svg>
