<svg width="450" height="450" viewBox="0 0 450 450" fill="none" xmlns="http://www.w3.org/2000/svg">
<path d="M280.314 271.908C274.94 259.127 284.325 245 298.19 245V245C305.787 245 312.685 249.436 315.836 256.349L319.656 264.733C339.596 308.48 339.908 358.66 320.515 402.652L315.802 413.341C312.678 420.427 305.665 425 297.921 425V425C284.081 425 274.627 411.008 279.791 398.167L285.434 384.137C298.609 351.377 298.323 314.741 284.637 282.191L280.314 271.908Z" fill="#2D3436"/>
<path d="M95 385H102C109.18 385 115 379.18 115 372V136C115 135.172 115.672 134.5 116.5 134.5C137.843 134.777 155 152.158 155 173.503V254C155 260.753 158.78 266.937 164.789 270.017L180.487 278.062C189.396 282.628 195 291.797 195 301.808V322.25C195 332.527 184.237 339.253 175 334.75C165.763 330.247 155 336.973 155 347.25V364.5V385C155 407.091 137.091 425 115 425H95C83.9543 425 75 416.046 75 405C75 393.954 83.9543 385 95 385Z" fill="#2D3436"/>
<circle cx="225" cy="135" r="110" fill="#2D3436"/>
<path d="M287 185H315C326.046 185 335 193.954 335 205V205C335 216.046 326.046 225 315 225H287V185Z" fill="#2D3436"/>
<circle cx="255" cy="145" r="60" fill="white"/>
<circle cx="275" cy="145" r="40" fill="#2D3436"/>
<path d="M264 135C264 123.954 272.954 115 284 115V115C295.046 115 304 123.954 304 135V135C304 146.046 295.046 155 284 155V155C272.954 155 264 146.046 264 135V135Z" fill="white"/>
</svg>
